<?xml version="1.0" encoding="utf-8"?>
<!-- Generator: Adobe Illustrator 22.1.0, SVG Export Plug-In . SVG Version: 6.00 Build 0)  -->
<svg version="1.1" id="Layer_1" xmlns="http://www.w3.org/2000/svg" xmlns:xlink="http://www.w3.org/1999/xlink" x="0px" y="0px"
	 viewBox="0 0 300 121.9" style="enable-background:new 0 0 300 121.9;" xml:space="preserve">
<style type="text/css">
	.st0{fill:#009ADE;}
	.st1{fill:#231F59;}
	.st2{fill:#8FA2AC;}
	.st3{fill:none;stroke:#5BB3E4;stroke-width:0.4921;stroke-miterlimit:10;}
</style>
<g>
	<g>
		<path class="st0" d="M1.3,25.6H9l28,31.3V25.6h7.6v49.9h-5.2L9,41v33.7H1.3V25.6z"/>
		<path class="st0" d="M84.9,74.7H73.6v-3c-0.6,0.5-1.2,1-1.8,1.4c-0.6,0.4-1.3,0.8-2,1.2c-0.7,0.3-1.5,0.6-2.5,0.8
			c-0.9,0.2-2,0.3-3.3,0.3c-1.7,0-3.2-0.2-4.6-0.7c-1.4-0.5-2.5-1.2-3.5-2c-1-0.9-1.7-1.9-2.2-3.1c-0.5-1.2-0.8-2.4-0.8-3.8
			c0-1.4,0.3-2.7,0.8-3.8c0.5-1.1,1.3-2.2,2.2-3.1c0.9-0.9,2-1.7,3.3-2.5c1.3-0.7,2.6-1.4,4-2c1.4-0.6,2.9-1.1,4.5-1.7
			c1.5-0.5,3.1-1,4.6-1.5l1.2-0.3v-3.7c0-1.2-0.1-2.2-0.4-3c-0.2-0.8-0.6-1.5-1-2c-0.4-0.5-0.9-0.9-1.6-1.1
			c-0.6-0.2-1.3-0.3-2.1-0.3c-0.9,0-1.6,0.1-2.2,0.3c-0.6,0.2-1.1,0.5-1.4,0.9c-0.4,0.4-0.6,0.9-0.8,1.4C64,44,64,44.6,64,45.2
			c0,0.7-0.1,1.4-0.2,2c-0.1,0.6-0.4,1.2-0.8,1.7c-0.4,0.5-0.9,0.9-1.6,1.2c-0.7,0.3-1.5,0.4-2.5,0.4c-0.8,0-1.5-0.1-2.2-0.4
			s-1.2-0.6-1.7-1c-0.5-0.4-0.8-0.9-1.1-1.5c-0.3-0.6-0.4-1.2-0.4-1.9c0-1.3,0.4-2.5,1.3-3.6c0.9-1.1,2.1-2,3.5-2.8
			c1.5-0.8,3.2-1.4,5.1-1.9c1.9-0.4,4-0.7,6.2-0.7c2.6,0,4.9,0.2,6.8,0.7c1.9,0.5,3.5,1.2,4.7,2c1.2,0.9,2.2,1.9,2.8,3.2
			c0.6,1.2,0.9,2.6,0.9,4.2V74.7z M73.6,55.6c-1.1,0.5-2.2,1-3.3,1.6c-1.1,0.6-2.1,1.3-3,2c-0.9,0.7-1.6,1.5-2.2,2.3
			c-0.6,0.8-0.8,1.7-0.8,2.6c0,0.7,0.1,1.4,0.3,2c0.2,0.6,0.4,1.2,0.8,1.7c0.3,0.5,0.7,0.8,1.1,1.1c0.4,0.3,0.8,0.4,1.3,0.4
			c0.9,0,1.8-0.3,2.8-0.8c1-0.6,2-1.3,3.1-2.1V55.6z"/>
		<path class="st0" d="M117.9,49.4c0-0.9-0.1-1.8-0.3-2.5c-0.2-0.7-0.5-1.4-0.8-1.8c-0.3-0.5-0.7-0.9-1.2-1.1
			c-0.4-0.3-0.9-0.4-1.4-0.4c-0.5,0-1,0.1-1.7,0.3c-0.6,0.2-1.3,0.5-2,0.8c-0.7,0.4-1.4,0.8-2.1,1.3c-0.7,0.5-1.4,1.1-2.1,1.7v27.1
			H95.1v-37h11.3v2.9c1.7-1.3,3.6-2.2,5.6-2.8c2-0.6,4-0.9,5.9-0.9c1.5,0,3,0.3,4.3,0.9c1.4,0.6,2.6,1.4,3.6,2.4
			c1,1,1.8,2.2,2.4,3.6c0.6,1.4,0.9,2.8,0.9,4.4v26.5h-11.2V49.4z"/>
		<path class="st0" d="M156.9,75.4c-2.9,0-5.7-0.5-8.2-1.4c-2.5-1-4.7-2.3-6.5-4c-1.8-1.7-3.2-3.7-4.3-6c-1-2.3-1.5-4.8-1.5-7.4
			c0-2.9,0.5-5.5,1.5-7.9c1-2.4,2.4-4.5,4.3-6.2c1.8-1.7,4-3.1,6.5-4.1c2.5-1,5.2-1.5,8.2-1.5c2.9,0,5.7,0.5,8.2,1.4
			c2.5,1,4.7,2.3,6.5,3.9c1.8,1.7,3.3,3.6,4.3,5.9c1,2.3,1.6,4.7,1.6,7.3c0,2.7-0.5,5.3-1.6,7.7c-1,2.4-2.5,4.5-4.3,6.3
			c-1.8,1.8-4,3.2-6.5,4.3C162.5,74.9,159.8,75.4,156.9,75.4z M158.2,70.9c1,0,2-0.3,2.8-1c0.9-0.7,1.6-1.6,2.2-2.7
			c0.6-1.1,1.1-2.4,1.5-3.9c0.4-1.5,0.5-3,0.5-4.6c0-2.4-0.2-4.6-0.5-6.7c-0.3-2.1-0.9-3.9-1.7-5.5c-0.8-1.6-1.8-2.8-3.1-3.7
			c-1.3-0.9-2.8-1.4-4.7-1.4c-0.9,0-1.7,0.3-2.5,1c-0.8,0.7-1.5,1.5-2.2,2.6c-0.6,1.1-1.1,2.4-1.5,3.8c-0.4,1.4-0.6,3-0.6,4.6
			c0,2.4,0.2,4.6,0.7,6.8c0.4,2.1,1.1,4,1.9,5.6c0.8,1.6,1.9,2.8,3.1,3.8C155.3,70.4,156.7,70.9,158.2,70.9z"/>
	</g>
	<g>
		<path class="st1" d="M238.7,75.9c-2.6,0-5.1-0.5-7.4-1.5c-2.3-1-4.3-2.3-6.1-3.9c-1.7-1.7-3.1-3.6-4.1-5.8c-1-2.2-1.5-4.5-1.5-7
			c0-2.9,0.5-5.6,1.4-8.1c0.9-2.5,2.2-4.7,3.9-6.5c1.7-1.8,3.7-3.3,6.1-4.3c2.4-1,5-1.6,7.9-1.6c2.6,0,4.9,0.4,7.1,1.2
			c2.1,0.8,4,1.9,5.5,3.4c1.5,1.4,2.7,3.1,3.6,5c0.9,1.9,1.3,4,1.3,6.2h-25.7c0.1,2,0.4,4,0.9,5.9c0.5,1.9,1.2,3.5,2.1,4.9
			c0.9,1.4,1.9,2.6,3.1,3.4c1.2,0.8,2.5,1.3,3.9,1.3c1.2,0,2.5-0.2,3.7-0.6c1.2-0.4,2.3-1,3.3-1.8c1-0.7,1.9-1.6,2.6-2.6
			c0.7-1,1.3-2,1.6-3.1l5.8,0.9c-0.6,2-1.5,3.9-2.8,5.7c-1.3,1.8-2.8,3.3-4.5,4.6c-1.7,1.3-3.6,2.4-5.6,3.1
			C242.8,75.5,240.8,75.9,238.7,75.9z M243.5,49.3c-0.1-1.1-0.3-2.1-0.7-3c-0.4-0.9-0.9-1.7-1.4-2.3c-0.6-0.6-1.3-1.1-2-1.5
			c-0.8-0.4-1.6-0.5-2.5-0.5c-0.7,0-1.4,0.2-2,0.5c-0.7,0.3-1.3,0.8-1.8,1.5c-0.6,0.6-1,1.4-1.4,2.3c-0.4,0.9-0.6,1.9-0.7,3H243.5z"
			/>
		<path class="st1" d="M287.3,49.7c0-0.9-0.1-1.8-0.3-2.5c-0.2-0.7-0.5-1.4-0.8-1.8c-0.3-0.5-0.7-0.9-1.2-1.1
			c-0.4-0.3-0.9-0.4-1.4-0.4c-0.5,0-1,0.1-1.7,0.3c-0.6,0.2-1.3,0.5-2,0.8c-0.7,0.4-1.4,0.8-2.1,1.3c-0.7,0.5-1.4,1.1-2.1,1.7v27.1
			h-11.3v-37h11.3V41c1.7-1.3,3.6-2.2,5.6-2.8c2-0.6,4-0.9,5.9-0.9c1.5,0,3,0.3,4.3,0.9c1.4,0.6,2.6,1.4,3.6,2.4
			c1,1,1.8,2.2,2.4,3.6c0.6,1.4,0.9,2.8,0.9,4.4v26.5h-11.2V49.7z"/>
	</g>
	<polygon class="st0" points="191.1,37.4 178.5,37.4 191.9,55.3 195.6,48.9 197.7,46.2 	"/>
	<path class="st1" d="M212.2,39.9c0,0-5.2,5.2-11.3,12.7c-8.1,9.9-15.4,23.2-13.8,33.1c0.8,5.1,6.6,8.9,13.8,7.6
		c9.3-1.6,19.2-10.5,19.2-10.5s-11.3,7.8-17.5,7.4c-5.1-0.3-9.3-2.8-10.3-8.7c-1.2-7.3,6.1-20.5,8.5-24.2
		C203.5,53.1,205.3,49.3,212.2,39.9z"/>
	<path class="st0" d="M184.9,85.1c0,0-3.5-11.7,13-33.1c16.2-21,46.1-43.7,46.1-15.7c3.5-26.1-22.2-19.6-40.7,1.1
		C195.8,45.8,178,68.2,184.9,85.1z"/>
	<circle class="st0" cx="219.3" cy="14.7" r="4.1"/>
	<circle class="st0" cx="200" cy="26.8" r="4.1"/>
	<circle class="st0" cx="205" cy="16.1" r="2.9"/>
	<circle class="st0" cx="186.8" cy="19.6" r="2.3"/>
	<circle class="st0" cx="196.3" cy="4.7" r="4.2"/>
	<polygon class="st1" points="206.6,75.1 219.2,75.1 203.3,53.7 201.7,53.6 196.5,61.5 	"/>
	<g>
		<path class="st2" d="M2.5,107.7h3.4c1.6,0,2.8,0.4,3.7,1.3c0.9,0.9,1.3,2.1,1.3,3.7c0,1.6-0.4,2.8-1.3,3.7
			c-0.9,0.9-2.1,1.3-3.7,1.3H2.5V107.7z M5.8,116.7c1.3,0,2.3-0.3,2.9-1c0.6-0.7,1-1.7,1-3c0-2.7-1.3-4-3.9-4H3.7v8H5.8z"/>
		<path class="st2" d="M12.9,117.6v-10h6.3v1H14v3.5h4.9v1H14v3.6h5.2v1H12.9z"/>
		<path class="st2" d="M20.4,116.5l0.4-0.9c0.5,0.4,1,0.7,1.5,0.9c0.5,0.2,1.1,0.3,1.8,0.3c0.8,0,1.4-0.2,1.9-0.5
			c0.4-0.3,0.7-0.8,0.7-1.3c0-0.3-0.1-0.6-0.3-0.8c-0.2-0.2-0.5-0.4-0.8-0.5c-0.3-0.1-0.8-0.2-1.4-0.4c-0.8-0.2-1.4-0.4-1.9-0.5
			c-0.5-0.2-0.9-0.5-1.2-0.8c-0.3-0.4-0.5-0.9-0.5-1.5c0-0.6,0.1-1.1,0.4-1.5c0.3-0.4,0.7-0.8,1.3-1c0.5-0.2,1.2-0.4,1.9-0.4
			c0.7,0,1.3,0.1,1.9,0.3c0.6,0.2,1.1,0.5,1.5,0.9l-0.4,0.9c-0.5-0.4-0.9-0.7-1.4-0.9c-0.5-0.2-1-0.3-1.6-0.3
			c-0.8,0-1.4,0.2-1.8,0.5c-0.4,0.3-0.7,0.8-0.7,1.4c0,0.5,0.2,0.9,0.6,1.1c0.4,0.3,1,0.5,1.8,0.7c0.9,0.2,1.5,0.4,2,0.6
			c0.5,0.2,0.9,0.4,1.2,0.8c0.3,0.4,0.5,0.8,0.5,1.4c0,0.6-0.1,1.1-0.4,1.5c-0.3,0.4-0.7,0.8-1.3,1c-0.6,0.2-1.2,0.4-2,0.4
			C22.5,117.8,21.3,117.3,20.4,116.5z"/>
		<path class="st2" d="M29.6,117.6v-10h1.1v10H29.6z"/>
		<path class="st2" d="M40,107.7h1.1v10h-0.9l-6-8v8h-1.1v-10H34l6,8V107.7z"/>
		<path class="st2" d="M43.5,117.6v-10h6.2v1h-5v3.5h4.8v1h-4.8v4.6H43.5z"/>
		<path class="st2" d="M51.3,117.6v-10h6.3v1h-5.2v3.5h4.9v1h-4.9v3.6h5.2v1H51.3z"/>
		<path class="st2" d="M61.2,117.1c-0.7-0.4-1.2-1-1.6-1.8c-0.4-0.8-0.6-1.7-0.6-2.7c0-1,0.2-2,0.6-2.7c0.4-0.8,0.9-1.3,1.6-1.8
			c0.7-0.4,1.5-0.6,2.5-0.6c0.7,0,1.3,0.1,1.9,0.3c0.6,0.2,1.1,0.5,1.5,0.9l-0.4,0.9c-0.5-0.4-0.9-0.7-1.4-0.9
			c-0.5-0.2-1-0.3-1.5-0.3c-1.1,0-1.9,0.4-2.5,1.1c-0.6,0.7-0.9,1.7-0.9,3c0,1.3,0.3,2.3,0.9,3c0.6,0.7,1.4,1.1,2.6,1.1
			c0.6,0,1.1-0.1,1.5-0.3c0.5-0.2,0.9-0.5,1.4-0.9l0.4,0.9c-0.4,0.4-0.9,0.7-1.5,0.9c-0.6,0.2-1.2,0.3-1.9,0.3
			C62.7,117.8,61.9,117.6,61.2,117.1z"/>
		<path class="st2" d="M70.5,117.1c-0.7-0.4-1.2-1-1.6-1.8c-0.4-0.8-0.6-1.7-0.6-2.7c0-1,0.2-2,0.6-2.7c0.4-0.8,0.9-1.3,1.6-1.8
			c0.7-0.4,1.5-0.6,2.5-0.6c0.7,0,1.3,0.1,1.9,0.3c0.6,0.2,1.1,0.5,1.5,0.9l-0.4,0.9c-0.5-0.4-0.9-0.7-1.4-0.9
			c-0.5-0.2-1-0.3-1.5-0.3c-1.1,0-1.9,0.4-2.5,1.1c-0.6,0.7-0.9,1.7-0.9,3c0,1.3,0.3,2.3,0.9,3c0.6,0.7,1.4,1.1,2.6,1.1
			c0.6,0,1.1-0.1,1.5-0.3c0.5-0.2,0.9-0.5,1.4-0.9l0.4,0.9c-0.4,0.4-0.9,0.7-1.5,0.9c-0.6,0.2-1.2,0.3-1.9,0.3
			C72.1,117.8,71.2,117.6,70.5,117.1z"/>
		<path class="st2" d="M78.2,117.6v-10h1.1v10H78.2z"/>
		<path class="st2" d="M83.5,117.1c-0.7-0.4-1.2-1-1.6-1.8c-0.4-0.8-0.6-1.7-0.6-2.7c0-1,0.2-2,0.5-2.7c0.4-0.8,0.9-1.4,1.6-1.8
			c0.7-0.4,1.5-0.6,2.4-0.6c0.9,0,1.7,0.2,2.4,0.6c0.7,0.4,1.2,1,1.6,1.8c0.4,0.8,0.5,1.7,0.5,2.7c0,1-0.2,2-0.6,2.7
			c-0.4,0.8-0.9,1.4-1.6,1.8c-0.7,0.4-1.5,0.6-2.4,0.6C85,117.8,84.2,117.6,83.5,117.1z M88.4,115.7c0.6-0.7,0.9-1.7,0.9-3.1
			c0-1.3-0.3-2.3-0.9-3c-0.6-0.7-1.4-1.1-2.5-1.1c-1.1,0-1.9,0.4-2.5,1.1c-0.6,0.7-0.9,1.7-0.9,3c0,1.3,0.3,2.3,0.9,3.1
			c0.6,0.7,1.4,1.1,2.5,1.1C87,116.8,87.8,116.4,88.4,115.7z M86.3,106.8h-0.8l1.4-2.1h1.2L86.3,106.8z"/>
		<path class="st2" d="M99.4,107.7h1.1v10h-0.9l-6-8v8h-1.1v-10h0.9l6,8V107.7z"/>
		<path class="st2" d="M108.9,117.6v-9h-3.5v-1h8.1v1H110v9H108.9z"/>
		<path class="st2" d="M116,117.1c-0.7-0.4-1.2-1-1.6-1.8c-0.4-0.8-0.6-1.7-0.6-2.7c0-1,0.2-2,0.5-2.7c0.4-0.8,0.9-1.4,1.6-1.8
			c0.7-0.4,1.5-0.6,2.4-0.6c0.9,0,1.7,0.2,2.4,0.6c0.7,0.4,1.2,1,1.6,1.8c0.4,0.8,0.5,1.7,0.5,2.7c0,1-0.2,2-0.6,2.7
			c-0.4,0.8-0.9,1.4-1.6,1.8c-0.7,0.4-1.5,0.6-2.4,0.6C117.5,117.8,116.7,117.6,116,117.1z M120.9,115.7c0.6-0.7,0.9-1.7,0.9-3.1
			c0-1.3-0.3-2.3-0.9-3c-0.6-0.7-1.4-1.1-2.5-1.1s-1.9,0.4-2.5,1.1c-0.6,0.7-0.9,1.7-0.9,3c0,1.3,0.3,2.3,0.9,3.1
			c0.6,0.7,1.4,1.1,2.5,1.1C119.4,116.8,120.3,116.4,120.9,115.7z"/>
		<path class="st2" d="M126.7,117.6v-9h-3.5v-1h8.1v1h-3.5v9H126.7z"/>
		<path class="st2" d="M139.2,117.6l-1.1-2.6h-5.2l-1.1,2.6h-1.2l4.4-10h1l4.4,10H139.2z M133.3,114.1h4.4l-2.2-5.1L133.3,114.1z"/>
		<path class="st2" d="M141.7,117.6v-10h1.1v9h5v1H141.7z"/>
		<path class="st2" d="M152.9,107.7h3.4c1.6,0,2.8,0.4,3.7,1.3c0.9,0.9,1.3,2.1,1.3,3.7c0,1.6-0.4,2.8-1.3,3.7
			c-0.9,0.9-2.1,1.3-3.7,1.3h-3.4V107.7z M156.2,116.7c1.3,0,2.3-0.3,2.9-1c0.6-0.7,1-1.7,1-3c0-2.7-1.3-4-3.9-4H154v8H156.2z"/>
		<path class="st2" d="M163.3,117.6v-10h6.3v1h-5.2v3.5h4.9v1h-4.9v3.6h5.2v1H163.3z"/>
		<path class="st2" d="M175,117.6v-10h1.1v9h5v1H175z"/>
		<path class="st2" d="M190,117.6l-1.1-2.6h-5.2l-1.1,2.6h-1.2l4.4-10h1l4.4,10H190z M184.1,114.1h4.4l-2.2-5.1L184.1,114.1z"/>
		<path class="st2" d="M200.4,117.6h-1.2l-1.2-3.3c-0.1-0.4-0.4-0.7-0.6-0.8c-0.3-0.1-0.6-0.2-1.1-0.2h-2.5v4.4h-1.1v-10h4
			c1.1,0,1.9,0.2,2.5,0.7c0.6,0.5,0.9,1.2,0.9,2.1c0,0.7-0.2,1.2-0.5,1.6c-0.3,0.4-0.8,0.8-1.5,0.9c0.3,0,0.5,0.2,0.7,0.4
			c0.2,0.2,0.4,0.5,0.5,0.9L200.4,117.6z M196.4,112.3c1.5,0,2.3-0.6,2.3-1.9c0-0.6-0.2-1.1-0.6-1.4c-0.4-0.3-1-0.5-1.7-0.5h-2.7
			v3.7H196.4z"/>
		<path class="st2" d="M210,112.4v4.6c-0.4,0.2-0.9,0.4-1.5,0.5c-0.6,0.1-1.3,0.2-1.9,0.2c-1,0-1.8-0.2-2.6-0.6
			c-0.7-0.4-1.3-1-1.6-1.8c-0.4-0.8-0.6-1.7-0.6-2.7c0-1.1,0.2-2,0.6-2.7c0.4-0.8,0.9-1.3,1.6-1.8c0.7-0.4,1.5-0.6,2.5-0.6
			c0.7,0,1.3,0.1,1.9,0.3c0.6,0.2,1.1,0.5,1.5,0.9l-0.4,0.9c-0.5-0.4-1-0.7-1.4-0.9c-0.5-0.2-1-0.3-1.6-0.3c-1.1,0-2,0.4-2.6,1.1
			c-0.6,0.7-0.9,1.7-0.9,3c0,1.4,0.3,2.4,0.9,3.1c0.6,0.7,1.5,1.1,2.7,1.1c0.8,0,1.6-0.1,2.4-0.4v-3h-2.5v-0.9H210z"/>
		<path class="st2" d="M219.9,117.6l-1.1-2.6h-5.2l-1.1,2.6h-1.2l4.4-10h1l4.4,10H219.9z M214,114.1h4.4l-2.2-5.1L214,114.1z"/>
		<path class="st2" d="M226,107.7h3.4c1.6,0,2.8,0.4,3.7,1.3c0.9,0.9,1.3,2.1,1.3,3.7c0,1.6-0.4,2.8-1.3,3.7
			c-0.9,0.9-2.1,1.3-3.7,1.3H226V107.7z M229.3,116.7c1.3,0,2.3-0.3,2.9-1c0.6-0.7,1-1.7,1-3c0-2.7-1.3-4-3.9-4h-2.1v8H229.3z"/>
		<path class="st2" d="M237.3,116.7c-0.7-0.7-1-1.7-1-3v-6.1h1.1v6.2c0,1,0.2,1.7,0.7,2.2c0.5,0.5,1.2,0.7,2.1,0.7
			c0.9,0,1.6-0.2,2.1-0.7c0.5-0.5,0.7-1.2,0.7-2.2v-6.2h1.1v6.1c0,1.3-0.3,2.3-1,3c-0.7,0.7-1.7,1-2.9,1
			C239,117.8,238,117.4,237.3,116.7z"/>
		<path class="st2" d="M254.4,117.6h-1.2l-1.2-3.3c-0.1-0.4-0.4-0.7-0.6-0.8c-0.3-0.1-0.6-0.2-1.1-0.2h-2.5v4.4h-1.1v-10h4
			c1.1,0,1.9,0.2,2.5,0.7c0.6,0.5,0.9,1.2,0.9,2.1c0,0.7-0.2,1.2-0.5,1.6c-0.3,0.4-0.8,0.8-1.5,0.9c0.3,0,0.5,0.2,0.7,0.4
			c0.2,0.2,0.4,0.5,0.5,0.9L254.4,117.6z M250.4,112.3c1.5,0,2.3-0.6,2.3-1.9c0-0.6-0.2-1.1-0.6-1.4c-0.4-0.3-1-0.5-1.7-0.5h-2.7
			v3.7H250.4z"/>
		<path class="st2" d="M263.8,117.6l-1.1-2.6h-5.2l-1.1,2.6h-1.2l4.4-10h1l4.4,10H263.8z M257.9,114.1h4.4l-2.2-5.1L257.9,114.1z"/>
		<path class="st2" d="M267.8,117.1c-0.7-0.4-1.2-1-1.6-1.8c-0.4-0.8-0.6-1.7-0.6-2.7c0-1,0.2-2,0.6-2.7c0.4-0.8,0.9-1.3,1.6-1.8
			c0.7-0.4,1.5-0.6,2.5-0.6c0.7,0,1.3,0.1,1.9,0.3c0.6,0.2,1.1,0.5,1.5,0.9l-0.4,0.9c-0.5-0.4-0.9-0.7-1.4-0.9
			c-0.5-0.2-1-0.3-1.5-0.3c-1.1,0-1.9,0.4-2.5,1.1c-0.6,0.7-0.9,1.7-0.9,3c0,1.3,0.3,2.3,0.9,3c0.6,0.7,1.4,1.1,2.6,1.1
			c0.6,0,1.1-0.1,1.5-0.3c0.5-0.2,0.9-0.5,1.4-0.9l0.4,0.9c-0.4,0.4-0.9,0.7-1.5,0.9c-0.6,0.2-1.2,0.3-1.9,0.3
			C269.3,117.8,268.5,117.6,267.8,117.1z"/>
		<path class="st2" d="M275.5,117.6v-10h1.1v10H275.5z"/>
		<path class="st2" d="M280.8,117.1c-0.7-0.4-1.2-1-1.6-1.8c-0.4-0.8-0.6-1.7-0.6-2.7c0-1,0.2-2,0.5-2.7c0.4-0.8,0.9-1.4,1.6-1.8
			c0.7-0.4,1.5-0.6,2.4-0.6c0.9,0,1.7,0.2,2.4,0.6c0.7,0.4,1.2,1,1.6,1.8c0.4,0.8,0.5,1.7,0.5,2.7c0,1-0.2,2-0.6,2.7
			c-0.4,0.8-0.9,1.4-1.6,1.8c-0.7,0.4-1.5,0.6-2.4,0.6C282.3,117.8,281.5,117.6,280.8,117.1z M285.7,115.7c0.6-0.7,0.9-1.7,0.9-3.1
			c0-1.3-0.3-2.3-0.9-3c-0.6-0.7-1.4-1.1-2.5-1.1s-1.9,0.4-2.5,1.1c-0.6,0.7-0.9,1.7-0.9,3c0,1.3,0.3,2.3,0.9,3.1
			c0.6,0.7,1.4,1.1,2.5,1.1C284.3,116.8,285.1,116.4,285.7,115.7z M283.6,106.8h-0.8l1.4-2.1h1.2L283.6,106.8z"/>
		<path class="st2" d="M296.7,107.7h1.1v10h-0.9l-6-8v8h-1.1v-10h0.9l6,8V107.7z"/>
	</g>
	<line class="st3" x1="1.1" y1="121.3" x2="298.9" y2="121.3"/>
	<line class="st3" x1="1.1" y1="102.6" x2="298.9" y2="102.6"/>
</g>
</svg>
